<?xml version="1.0" standalone="no"?>
<!DOCTYPE svg PUBLIC "-//W3C//DTD SVG 20010904//EN"
 "http://www.w3.org/TR/2001/REC-SVG-20010904/DTD/svg10.dtd">
<svg version="1.0" xmlns="http://www.w3.org/2000/svg"
 width="600.000000pt" height="461.000000pt" viewBox="0 0 600.000000 461.000000"
 preserveAspectRatio="xMidYMid meet">

<g transform="translate(0.000000,461.000000) scale(0.100000,-0.100000)"
fill="#000000" stroke="none">
<path d="M2720 4448 c-146 -88 -269 -162 -275 -164 -6 -3 -9 50 -7 151 l3 155
-281 0 -280 0 0 -324 0 -324 -935 -563 c-514 -310 -935 -566 -935 -570 0 -6
266 -214 297 -232 6 -4 110 52 235 127 l223 134 3 -1419 2 -1419 175 0 175 0
0 1528 1 1527 931 560 c511 308 936 561 944 563 9 2 2288 -1362 2675 -1601 12
-7 49 17 168 108 83 64 151 121 149 126 -4 13 -2958 1790 -2982 1795 -14 2
-115 -54 -286 -158z"/>
</g>
</svg>
