<?xml version="1.0" encoding="utf-8"?>
<!-- Designed by Vexels.com - 2016 All Rights Reserved - https://vexels.com/terms-and-conditions/  -->

<svg version="1.0" id="Capa_1" xmlns="http://www.w3.org/2000/svg" xmlns:xlink="http://www.w3.org/1999/xlink" x="0px" y="0px"
	 width="1200px" height="1200px" viewBox="0 0 1200 1200" enable-background="new 0 0 1200 1200" xml:space="preserve">
<path fill="#000000" d="M957.032,280.577l-63.992-38.368v-0.02l-0.024-0.01l-57.553-34.494l0.218-135.372l-85.602-0.136
	l-0.121,84.183l-99.552-83.602c-12.831-7.699-33.923-7.883-46.895-0.426L243.135,279.792c-12.952,7.476-11.331,13.596,3.621,13.616
	l73.972,0.116l-0.387,254.002l171.106,0.252c6.189,2.818,12.531,5.423,19.02,7.757c1.472,3.535,1.646,8.242-2.576,13.81
	l-35.235,42.039c0,0-12.705,25.585,12.177,26.766l44.818,2.17c0,0,4.406-0.591,4.827,12.453l5.432,408.434
	c0,0,26.438,69.076,56.076,71.923l78.416-88.338l1.487-42.077l-33.952-44.692l51.156-54.047l0.756-34.339L642.63,813.77
	l55.514-58.24l-41.908-40.43l-1.569-71.449l73.787-2.983c0,0,12.696-2.576,3.985-17.218l-38.29-65.164
	c8.575-2.896,16.937-6.334,25.062-10.158l173.353,0.309l0.398-253.983l60.211,0.077C968.1,294.561,969.844,288.295,957.032,280.577z
	"/>
</svg>
